<svg xmlns="http://www.w3.org/2000/svg" viewBox="0 0 720 880" data-original-workshop-object="pulse-drivetrain"><title>Workshop KPI drivetrain assembly</title><g transform="translate(360 430)"><circle r="252" fill="none" stroke="#fffdf8" stroke-opacity=".22" vector-effect="non-scaling-stroke" stroke-width="2"/><circle r="205" fill="none" stroke="#fffdf8" stroke-opacity=".22" vector-effect="non-scaling-stroke" stroke-width="2" stroke-dasharray="3 18"/><g fill="none" stroke="#fffdf8" stroke-linecap="round" stroke-linejoin="round" vector-effect="non-scaling-stroke" stroke-width="3"><circle cx="0" cy="0" r="164"/><circle cx="0" cy="0" r="13.120000000000001" fill="none" stroke="#ffc31a" stroke-linecap="round" stroke-linejoin="round" vector-effect="non-scaling-stroke" stroke-width="6"/><path d="M0 0L164.00 0.00" stroke-opacity=".3"/><path d="M0 0L151.52 62.76" stroke-opacity=".3"/><path d="M0 0L115.97 115.97" stroke-opacity=".3"/><path d="M0 0L62.76 151.52" stroke-opacity=".3"/><path d="M0 0L0.00 164.00" stroke-opacity=".3"/><path d="M0 0L-62.76 151.52" stroke-opacity=".3"/><path d="M0 0L-115.97 115.97" stroke-opacity=".3"/><path d="M0 0L-151.52 62.76" stroke-opacity=".3"/><path d="M0 0L-164.00 0.00" stroke-opacity=".3"/><path d="M0 0L-151.52 -62.76" stroke-opacity=".3"/><path d="M0 0L-115.97 -115.97" stroke-opacity=".3"/><path d="M0 0L-62.76 -151.52" stroke-opacity=".3"/><path d="M0 0L-0.00 -164.00" stroke-opacity=".3"/><path d="M0 0L62.76 -151.52" stroke-opacity=".3"/><path d="M0 0L115.97 -115.97" stroke-opacity=".3"/><path d="M0 0L151.52 -62.76" stroke-opacity=".3"/></g><circle r="112" fill="none" stroke="#fffdf8" stroke-linecap="round" stroke-linejoin="round" vector-effect="non-scaling-stroke" stroke-width="8"/><circle r="86" fill="none" stroke="#ffc31a" stroke-linecap="round" stroke-linejoin="round" vector-effect="non-scaling-stroke" stroke-width="4" stroke-dasharray="10 8"/><g fill="none" stroke="#fffdf8" stroke-linecap="round" stroke-linejoin="round" vector-effect="non-scaling-stroke" stroke-width="18"><path d="M0 0L126-82"/><path d="M0 0L-92 136"/></g><g fill="none" stroke="#ffc31a" stroke-linecap="round" stroke-linejoin="round" vector-effect="non-scaling-stroke" stroke-width="8"><rect x="116" y="-99" width="72" height="24" rx="12" transform="rotate(-33 116 -99)"/><rect x="-142" y="120" width="72" height="24" rx="12" transform="rotate(-56 -142 120)"/></g><g fill="none" stroke="#fffdf8" stroke-linecap="round" stroke-linejoin="round" vector-effect="non-scaling-stroke" stroke-width="5"><path d="M-246-238h92M154-238h92M-246 238h92M154 238h92"/><path d="M-238-246v92M238-246v92M-238 154v92M238 154v92"/></g></g></svg>
